<svg xmlns="http://www.w3.org/2000/svg" width="16" height="16" viewBox="0 0 16 16">
  <path fill="#F4AF3D" fill-rule="evenodd" d="M6.6113,12.2627 L8.0003,10.8727 L9.3883,12.2627 L8.0003,13.6517 L6.6113,12.2627 Z M3.7373,6.6117 L5.1263,7.9997 L3.7373,9.3887 L2.3483,7.9997 L3.7373,6.6117 Z M9.3883,3.7377 L8.0003,5.1267 L6.6113,3.7377 L8.0003,2.3487 L9.3883,3.7377 Z M10.8733,7.9997 L12.2623,6.6117 L13.6513,7.9997 L12.2623,9.3887 L10.8733,7.9997 Z M10.1663,8.7067 L11.5553,10.0957 L10.0953,11.5557 L8.7073,10.1657 L10.1663,8.7067 Z M8.7073,5.8337 L10.0953,4.4447 L11.5553,5.9047 L10.1663,7.2927 L8.7073,5.8337 Z M5.8333,7.2927 L4.4443,5.9047 L5.9043,4.4447 L7.2933,5.8337 L5.8333,7.2927 Z M7.2933,10.1657 L5.9043,11.5557 L4.4443,10.0957 L5.8333,8.7067 L7.2933,10.1657 Z M6.5403,7.9997 L8.0003,6.5407 L9.4593,7.9997 L8.0003,9.4587 L6.5403,7.9997 Z M8.0003,0.6517 L0.6513,7.9997 L8.0003,15.3487 L15.3483,7.9997 L8.0003,0.6517 Z" opacity=".7"/>
</svg>
