<svg xmlns="http://www.w3.org/2000/svg" width="16" height="16" viewBox="0 0 16 16">
  <path fill="#E05555" fill-rule="evenodd" d="M10.3667,9.5186 L8.8477,7.9996 L10.3667,6.4816 L11.8857,7.9996 L10.3667,9.5186 Z M7.9997,11.8846 L6.4817,10.3666 L7.9997,8.8476 L9.5187,10.3666 L7.9997,11.8846 Z M4.1147,7.9996 L5.6337,6.4816 L7.1517,7.9996 L5.6337,9.5186 L4.1147,7.9996 Z M7.9997,4.1156 L9.5187,5.6336 L7.9997,7.1526 L6.4817,5.6336 L7.9997,4.1156 Z M15.1247,6.4566 L14.2757,5.6096 L12.7337,7.1526 L11.2147,5.6336 L12.7577,4.0906 L11.9087,3.2436 L10.3667,4.7856 L8.8477,3.2666 L10.3907,1.7236 L9.5427,0.8756 L7.9997,2.4176 L6.4577,0.8756 L5.6087,1.7236 L7.1517,3.2666 L5.6337,4.7856 L4.0907,3.2436 L3.2417,4.0906 L4.7847,5.6336 L3.2667,7.1526 L1.7237,5.6096 L0.8757,6.4566 L2.4187,7.9996 L0.8757,9.5426 L1.7237,10.3906 L3.2667,8.8476 L4.7847,10.3666 L3.2417,11.9096 L4.0907,12.7566 L5.6337,11.2146 L7.1517,12.7336 L5.6087,14.2766 L6.4577,15.1236 L7.9997,13.5816 L9.5427,15.1236 L10.3907,14.2766 L8.8477,12.7336 L10.3667,11.2146 L11.9087,12.7566 L12.7577,11.9096 L11.2147,10.3666 L12.7337,8.8476 L14.2757,10.3906 L15.1247,9.5426 L13.5817,7.9996 L15.1247,6.4566 Z" opacity=".7"/>
</svg>
